<?xml version="1.0" encoding="UTF-8"?>
<svg id="Layer_1" xmlns="http://www.w3.org/2000/svg" version="1.1" viewBox="0 0 4529 2998.6">
  <!-- Generator: Adobe Illustrator 29.2.1, SVG Export Plug-In . SVG Version: 2.1.0 Build 116)  -->
  <defs>
    <style>
      .st0 {
        fill: #fffaf0;
      }
    </style>
  </defs>
  <path class="st0" d="M399.5,2940c-1.9-.2-8.1-.9-13.9-1.4-53.1-5.3-109.7-27-154.3-59.1-66.8-48.1-113.8-118.1-133.5-198.5-10.4-42.8-12.5-90.7-5.8-134.7,17.9-118.2,96-219.4,204.3-264.8,27-11.3,53.9-18.5,85.5-22.8,17.5-2.4,60.2-2.4,77.8,0,37.5,5.1,69.2,14.5,101.9,30.3,35.9,17.4,60.8,35.3,90.8,65.4,26.3,26.3,42.5,48.3,61.4,82.9l4,7.4-14.2,10.5c-19.6,14.5-65.4,47.2-80.4,57.3l-12.3,8.4-5.1-11c-6.3-13.6-10.7-21.7-18-32.5-28.9-43.2-75-74-125.3-83.8-26.6-5.2-59.3-4.6-85.5,1.5-27.5,6.4-57.4,20.8-80.3,38.6-9.2,7.2-26.1,24-33.6,33.3-40.2,50.4-55,114.6-41.2,178.7,4.8,22.2,17.1,51.2,30,70.5,34.1,51,86.4,83.7,145.7,91,10.5,1.3,35.7,1.3,46.2,0,52.5-6.5,101-33.7,134.1-75.4,9.8-12.3,16.6-22.9,24.3-38,3.4-6.6,6.5-12,6.8-12s24.5,17,53.7,37.9l53.1,37.9-5.4,10.2c-11.2,21.1-30.4,47.6-48.2,66.6-30.5,32.4-60.1,54.4-98.7,73.3-33.3,16.3-68.7,26.7-106.2,31.2-8.4,1-51.7,2-57.7,1.3ZM853.1,2595.1v-332.1h128.8v238.4h336.4v-238.4h128.8v664.1h-128.8v-292.2h-336.4v292.2h-128.8v-332.1ZM1577.2,2868.2c14.4-32.4,80.6-181.8,147.2-332.1l121.1-273.2h90.3s90.3,0,90.3,0l146.4,328c80.5,180.4,147.2,329.8,148.2,332l1.8,4.1h-154.2l-29.8-65.8-29.8-65.8-172.3.2-172.3.2-29.4,65.6-29.4,65.6h-154.2l26.1-58.9h0ZM2054.3,2661.5c-.5-2.3-117.5-263.9-118-263.9-.4,0-111.5,259.3-113.2,264.3-.2.6,44.2.9,115.6.9s115.9-.2,115.7-1.3ZM2426.4,2595.1v-332.1h90.6s90.6,0,90.6,0l141.8,199.1,141.8,199.1.2-199.1.2-199.1h129.7v664.1l-52.1-.2-52.1-.2-179.8-249.6c-98.9-137.3-180.1-249.6-180.5-249.6-.4,0-.7,112.4-.7,249.8v249.9h-129.7v-332.1ZM3255.8,2595.1v-332.1h464.2v133.6h-334.5v132.6h309.5v133.6h-309.5v132.6h382.5v131.7h-512.3v-332.1ZM3949.7,2595.1v-332.1h129.7v532.4h361.4v131.7h-491.1v-332.1ZM1726.3,2094.1c-138.6-6.4-293-48.5-417.4-113.8-95.5-50.1-171.3-106.3-250.6-185.7-62.1-62.2-108-119.5-146.8-183.5l-17-28,24.1-12.8c47-24.9,261-134.5,262.7-134.5s9.8,12,19.7,26.7c111.5,166.3,286.1,274.4,490.3,303.8,35.7,5.1,143.1,4.3,181.9-1.4,43.3-6.4,95.1-18.2,128.1-29.1,2.1-.7-2-7.4-11.4-18.5-73-86-139.5-204.1-177-314.1-67.7-198.9-72.5-412.4-13.8-612.9,36.4-124.6,99.2-245.5,178.6-344.3,11.8-14.7,21.5-27.7,21.5-28.9,0-3.9-62-20.4-102.7-27.3-62.8-10.7-161.1-12-217.9-2.9-95.5,15.2-192.4,51-268.2,98.9-84.4,53.4-154.8,122.1-210.9,205.8l-24.8,37-31.6-16.6c-17.4-9.1-81.9-42.5-143.3-74.3-61.5-31.7-111.9-57.9-112.2-58.1-1-.9,37.5-62.1,53.3-84.8,48.1-69.1,133.5-160.7,196.6-210.8,165-131,348.4-204.7,554.9-223.1,38.3-3.4,133.3-3.4,170.2,0,131.1,12,243.5,43.8,359.6,101.7l55.5,27.7,18.6-10.6c30-17.1,83.3-41.7,123.8-57.2,113.6-43.5,228.1-64.2,354.5-64.2,88.3,0,162,8.7,241.9,28.5,180.7,44.7,334.7,130.4,467.5,260,72,70.3,128.4,142,173.9,221.2l6.9,12-112.3,57.9c-61.8,31.9-126.4,65.3-143.6,74.3l-31.3,16.4-23.6-35.7c-116.7-176-307.5-290.6-516.4-310.1-61.8-5.8-153.7-.5-209.5,12.1-28.7,6.5-75.4,19.8-75.4,21.5,0,.9,7.6,11,17,22.4,119.7,146.9,194.5,325.9,218.6,523.7,5.8,47.2,6.5,167.7,1.4,214.4-21.8,197.3-96.4,379.4-215.5,526-27,33.2-25.8,30.9-17.2,34.3,4.1,1.6,23.2,6.9,42.5,11.8,98.1,24.8,203.6,28.4,302.8,10.1,180.3-33.3,342.7-139.9,447.1-293.6,9.7-14.3,18.5-26.9,19.5-28.1,1-1.2,25.1,9.5,53.5,23.8,56.3,28.2,232.6,119.5,234.5,121.4,3.2,3.2-53,86.6-87.5,129.9-32.6,41-118.1,126.4-159,158.8-147.7,117-313.4,188.6-495.9,214.1-209.6,29.3-431.5-10-612.1-108.3l-25.5-13.9-31.7,16.7c-156.8,83-336.7,122.5-519,114.1h0ZM2311.8,1517.6c87.4-108.2,141.9-239.4,155.4-373.9,4.5-45.1,1.8-137.1-5.2-178.2-19.3-113.1-60.7-210-127.4-298.6-12.6-16.7-30.9-39-40.7-49.6l-17.8-19.2-16.5,17.9c-21.8,23.6-58.1,71.8-76.4,101.4-92.9,150.3-123.3,334.9-83.9,510.6,24.8,110.6,81.7,222,158.4,309.9l17.7,20.3,7.7-7.3c4.3-4,17.2-19,28.7-33.3h0Z"/>
</svg>