<?xml version="1.0" encoding="UTF-8"?>
<svg id="Layer_1" xmlns="http://www.w3.org/2000/svg" version="1.1" viewBox="0 0 2500 2500">
  <!-- Generator: Adobe Illustrator 29.2.1, SVG Export Plug-In . SVG Version: 2.1.0 Build 116)  -->
  <defs>
    <style>
      .st0 {
        fill: #fffaf0;
        fill-rule: evenodd;
      }
    </style>
  </defs>
  <path class="st0" d="M163.5,1637.5v275.4H36.8v-654.6h433.6v116.2H163.5v146.9h268.8v116.1H163.5ZM1003.8,1258.2v116.2h-323.7v137.4h297.4v116.2h-297.4v168.8h338.2v116.2h-462.9v-654.6h448.4,0ZM1493.5,1714v-455.8h118.4v654.6h-126.9l-249.7-467h-1.6v467h-118.4v-654.6h133.9l242.8,455.8h1.6ZM1980.9,1372.2c23.7,0,45.7,4.6,65.9,13.6,20.2,9.1,37.6,29.1,52.1,60,14.5,30.9,21.8,75.6,21.8,134.3s-4.6,73.8-13.7,107.1c-9.1,33.2-24.1,60.2-44.9,80.8-20.8,20.6-47.4,30.9-79.7,30.9h-123.6v-426.8h122ZM1997.8,1912.9c47.6,0,88-10.6,121.2-31.8,32.8-20.8,59.9-49.5,78.7-83.6,19.2-34.4,32.9-71.5,40.8-110.1,8-38.9,12-78,12-117.3s-3.6-70.5-10.9-106.2c-7.1-35.2-19.9-69.1-37.9-100.2-18-31.2-43.5-56.5-76.5-76.1-32.9-19.6-73.7-29.4-122.4-29.4h-268.8v654.6h263.7ZM2463.2,1258.2v654.6h-126.8v-654.6h126.8ZM1028.1,440.1l-1.3,568.8h85v-296.1h137.8v-74.8h-137.8v-118.7h244.8l1-78.7-329.5-.5h0Z"/>
  <path class="st0" d="M1471.9,1008.8l1.3-568.8h-85v296.1h-137.8v74.8h137.8v118.7h-244.8l-1,78.7,329.5.5h0Z"/>
</svg>