<?xml version="1.0" encoding="UTF-8"?>
<svg id="Layer_1" xmlns="http://www.w3.org/2000/svg" version="1.1" viewBox="0 0 2500 2500">
  <!-- Generator: Adobe Illustrator 29.2.1, SVG Export Plug-In . SVG Version: 2.1.0 Build 116)  -->
  <defs>
    <style>
      .st0 {
        fill: #fffaf0;
        fill-rule: evenodd;
      }
    </style>
  </defs>
  <path class="st0" d="M2215.9,1098.9h73.2c-8.1,6.3-13,14-13,24.5v252c0,10.5,5.1,18,13,24.3h-73.2c7.9-6.3,12.8-14,12.8-24.3v-252c0-10.5-4.7-18.2-12.8-24.5ZM519.6,1207.1c-12-25.7-25.1-51.1-47.2-69.5-23.5-19.9-53.3-31.8-84.1-31.8-81.9,0-118.6,74-118.6,146.8s35.1,141.5,114.1,141.5,63.7-14,83.5-39.3v-56.8c0-15.4-5.1-25.3-17-34.4h83.7c-8.9,10.1-14.4,20.5-14.4,34.4v56.8c-38.3,35.7-86,57.6-138.9,57.6-93.5,0-169.9-68.7-169.9-164.4s75.4-160.2,167.7-160.2,103.8,21.1,141.1,63.5v56h0ZM724.8,1098.9h78.9c-10.8,7.9-14.4,16.8-14.4,30v183.9c0,50.5,59.2,75.2,102.6,75.2s98.1-24.9,98.1-74.2v-184.9c0-12.4-3-20.9-11.3-30h43c-8.7,8.9-12,17.8-12,30v184.9c0,66.5-78.5,92-132.8,92s-137.7-24.7-137.7-93v-183.9c0-12.6-5.1-21.9-14.4-30h0ZM1514.7,1208.1c-10.5-26.6-22.9-49.9-44.6-69.1-23.3-20.7-51.7-33.7-83.1-33.7-81.1,0-122.7,71-122.7,144.6s43.2,143.9,123.3,143.9,102.2-42,127.1-92.5v54.7c-37.1,36.7-84.9,55.4-137.2,55.4-96.9,0-169.5-62.6-169.5-162.6s69.7-161,164.8-161,103.8,18.2,141.9,54.5v65.7ZM2023.2,1208.1c-10.5-26.6-22.9-49.9-44.6-69.1-23.3-20.7-51.7-33.7-83.1-33.7-81.1,0-122.5,71-122.5,144.6s43,143.9,123.1,143.9,102.4-42,127.1-92.5v54.7c-37.1,36.7-84.8,55.4-137.2,55.4-96.9,0-169.5-62.6-169.5-162.6s69.7-161,164.8-161,103.8,18.2,141.9,54.5v65.7h0Z"/>
</svg>