<?xml version="1.0" encoding="UTF-8"?>
<svg id="Layer_1" xmlns="http://www.w3.org/2000/svg" version="1.1" viewBox="0 0 2500 2019.2">
  <!-- Generator: Adobe Illustrator 29.2.1, SVG Export Plug-In . SVG Version: 2.1.0 Build 116)  -->
  <defs>
    <style>
      .st0 {
        fill: #fffaf0;
      }
    </style>
  </defs>
  <path class="st0" d="M312.1,1410.5h43.6v83.2h-155v-83.2h43.4v-48.8H106.4v48.8h43.8v245.2h-43.8v48.5h137.7v-48.5h-43.4v-113.8h155v113.8h-43.5v48.5h138.1v-48.5h-44v-245.2h44v-48.8h-138.1M1973.7,1655.6h-135.8v-114.3h116.8v-48.3h-116.8v-82.6h136.8v46.9h48.1v-95.6h-281.4v48.8h45.9v245.2h-45.9v48.5h282.1v-114.1h-49.8M796.7,1590.1h-49.8v65.6h-135.8v-114.3h116.8v-48.3h-116.8v-82.6h136.9v46.9h48.1v-95.6h-281.4v48.8h45.9v245.2h-45.9v48.5h282M1851.1,1344.8h98.7l-25.2-30.1h-101.2M2298,1508.3c-34.4-9.8-58.8-7.6-93.8-19.3-31.6-10.6-37.9-30.1-37.9-42.9s14-46.5,63.7-46.5,82.3,32.9,84.2,61.9h.2c0-.1,0,0,0,0h47.8v-99.9h-46.2v21.7l1.4,6.8c-.3-1-1.6-3.7-6.5-8.6,0,0,0-.2,0-.3-14.7-13.2-42.6-27.5-84.6-27.5s-110.9,31.6-110.9,92.6,43,80.2,79.4,89.9c36.5,9.7,55.1,9.7,85.6,17.9,30.4,8.2,50.1,26.6,50.1,53.7s-15.8,59.4-80.1,59.4-89.9-34.7-97.3-84.4l-.5.2h-45.5v121.2h47.5v-22.8c-.1,0-1.8-6-1.8-6,0,0,1.7,4.1,7.1,7.8l.5.7c24.1,18.5,55.6,30.7,96.1,30.7s124.2-23.2,124.2-105.2c-.1-58.7-31.3-86.4-82.4-101.1h0ZM1537.6,1655.6v48.5h139.7v-48.5h-45.8v-245.2h45.8v-48.8h-124.9l-82.7,200.2-1.7,9.8-1.6-10-82.7-200h-124.8v48.8h45.7v245.2h-45.8v48.5h139.6v-48.5h-43.7v-225.5l.3-14.9,4.1,11.9,95.2,227.9h27.1l95.6-227.9,3.5-12,.5,13.5v227.1M583.1,1217.5v11.2h47.1c-4.7-3.5-9.1-7.3-13.4-11.2h-33.7ZM1852.4,1217.7h-24.5c-6.8,1.3-11.9,7.1-12.4,11h36.9v-11h0ZM583.1,1261.4h1269.1v-23.7h-816.2c-20.9,10-47.3,9.5-68,0h-247.8c-23.4,10.3-50.4,10.2-73.8,0l-63.3-.2v23.7h0ZM940.5,1217.5h-191.7c-.7,1.3-9.4,8.9-13,11.2h216.8c-4.5-3.2-8.6-7-12.2-11.2Z"/>
  <path class="st0" d="M604.9,1129.4c-2.3,7.5-3.6,15.3-3.7,23.2,1.3,45.2,39,80.9,84.2,79.6,43.4-1.2,78.3-36.1,79.6-79.6,0-9.7-2-18.9-5.1-27.5,9.4-1.6,18.7-3.6,27.7-6.2,4.3-1.2,4.1-3.1.8-4.1-12.1-3.7-25-6.6-38.2-9-15.3-22-40.3-35.1-67.1-35.1-10.5,0-20.5,2.1-29.7,5.8-.1,0-.3-.3-.3-.3-3.8-6.8-4.1-15-1-22.1,8.3-13.6,26.8-18.9,42-20.2,5.1-.3,17.4.3,18.7,1.8,3,2.4,8.1,3.2,13.5,1.3,5.2,2,6.5,3.5,12.5,5.4,52.2,17.8,110,27.2,168.4,16.5,9.1,8.6,14.2,23.8,20.6,34.3,1.7,2.6,3.8-2,32.6-3,10.1-.4,22.6-.3,33.4,0-22.4,2.6-41.7,15.2-53.1,33.3-18,5.7-31.9,11.2-37.1,14.4-6.4,3.9-7.6,6,0,8,9.2,2.4,18.1,4,26.9,5-.6,3.6-1.1,7.3-1.1,11.1,0,40.1,32.5,72.7,72.7,72.7s72.7-32.5,72.7-72.7-3.5-24.2-9-34.4c9.2-3.3,18.8-6.9,29-10.9,7.9,2.9,13.3,7.6,18.9,14.2,4.6,5.2,15.1,3.2,21.3,1.6,10.1-2.6,11.6-10.6,11.5-19.8,0-4.2.2-8.2,2.2-11.5,11.8-26.8,58.8-30.3,82.9-36.2,0,0-12.6,15.2-21.6,18.5-1.8,39.1-16.8,73.2-18.6,110.5,11.4.5,10.9,13.2,13.6,20.4-3.2,6.9-8.6,0-13.6,2.3-17.3-9.6,4.1-25-10-36.8,7.2-31.3,19.1-61.8,18.1-95-4.5.5-6.3,5.5-8.1,9.1-3.2,31.4-12.3,60-20.4,89.1,3.6,1.8,10,3.6,9.6,9.1-10.9,6.8.4,17.8-4.1,25.6h-112.2l-12.5,11.2h172.1l1.6-6.3c-25.4-26.4-15.8-65.9-4.1-95.9l29.5-40c24.6-9.6,39.5-39.5,65.4-49.1,0,12.8-15.9,18.2-24.6,25.5-9,21.4-37.7,23.6-41.8,47.3,10.9,12.7,27.2,20.9,40.9,32.7,14.1,8.7,9,26.8,20.4,35.9,1.8,2.7,0,6.8-3.2,9.1-12,2.9-11.6,10.9-4.4,17.7,4.6,4.3,9.9,9.9,9.3,12h-79.4c0,3.6,3.2,5,6.7,11.2h438.6c3.3-6.2-3.9-13.5-6.9-19.6-31-11.7-30.8-41-32.6-73.3.3-1.3-1.8-4.4-1.4-11-4.6-4.3-25-56.2-15.7-96.8l6.8-13.3c6.4-9.1-.4-14,4.1-23.5l92.4-17.9c1.6-.9,1.2-4.6-.5-6.3l-28.1,5.2c-22.3-9.4-55-30.2-76.6-58.3,6.7-45.7,3.4-82.7-1.2-107.4,13.5-11.2,24.5-21.8,24.5-21.8,9.3,5.6,11.3,3,12.6,0-1.5-1.7-15.3-7.6-13-13.6,8.7,2.3,10.7-.4,12-5.3l-6.1-2.2h-.2l1-3.3c1.8-3.6,10-.2,13.2-1.1,5.5-3.4-.7-8.4,1.2-13-12.9-10.9-36.1-11.2-50.1-21.3-4.3-8.1-6.1-11.5-10.7-14.8-4.7-3.3-25-5.2-28.8-4-3.7,1.3-10.9,8-10.9,8-14.6,3.1-23.4-1.6-33.4-7.7,0,0,2.1,11.5,13.6,16.4-10.1,4.2-14.6,12.7-16.3,23.5-14,2.8-14.5,16.7-12.7,23.1-11.4,6.8-10.3,15.9-6.3,25-10.2,6.9-8.7,16.7-5.8,24.3-8.6,5.3,0,19.9,1.3,28.5,24.6-5.1,55.4,49.3,99.5,56,8.3-38.8-2.1-57.8-11.7-76.9,7.2-4.2,15-10,22.6-16,4.4,24.6,7.6,60.1,2.6,100.7-.3-.3-.7-.6-.9-.9-2.8,0-5.5-1.8-7.8-2.7.5,1.3,5.5,9.4,4.5,10.9,0,0-14.3,9.5-42.7-2.5-7.6,17.7-105,61.3-105,61.3,3.6,26.9,16.4,44.8,29.6,59.3,20.9,15.5,43.3,23.5,69.7,28.9,5.5,14.3,23.4,61.9,25,69.5,1.8,7.6,6,7.6,6,7.6,2.5,3.4,10.9,18.6,11.8,25.9l2.1,25.7c.9,5.9,8.6,1.4,10,6.5l-3.6,17.3h-291.8c4.1-20.4-6.3-38.2-.9-56.4-11.7-20.4-43.6-34.5-38.2-61.4,15.5-21.4,63.6-42.2,52.7-68,43.7-22.2,66.8,14.8,108.2,12.1,14.4-.8,30.5-2.4,43.7-6.3-16.3-14.2-32-35-40.2-53.6-86.8,34.9-171.2,63.7-265.3,82.8l-7.2-2.3c-7.2,1.1-110.8,24.4-138.3,35.1-7.2-4.3-15.1-7.4-23.4-9h2.4c8.8,0,22.2-4.7,31.8-8,40.3-14.7,55.1-72,73.2-108.5,15.8,56.7,52.5,61.3,73.8,54.2l2,17.8s18.6-.7,32.6-6.3c-1.4-3.4-3.3-12.4-4.6-24.2,8.5-4.4,13-7.6,16.9-9.8,1.2,13.4,2,26.1-2,33l47.9-12.8c9.2-41.4,34.3-99,78.5-141-59.4-23.6-103.9,3.4-115.2,14.2-55.9,17.9-58.2,95-56.5,121.6-9.7,1.9-50.4,16-69.6-54.4,11.2-27,32.5-57.1,56.4-80.5,2.1-1.7-.3-4.5-5.1-1.7-48,33-65.6,91-91.4,139.9-20.2,30.4-47.6,46.9-88.5,45.1-51.1-.8-75.9-54.1-99.3-88.8-35.9-78.7-128.9-50.4-197.9-67.2-3.9-2-11.5-24.7-22.5-23.9-7.8.6-.5,8.6-4.9,11.3-8.7-3.6-15.9-10-26.8-8.2-6.8,1.4-8.7,8.6-8.2,15,5.4,25,32.2,35.9,52.2,45,7.7,11.5,4.8,51.1-1.6,64.7-8.2,15.2-40.6,9.8-47.1,44.5-1.3,7.1.3,13.2,3.2,18.9-12.6,6.6-23.2,16.4-30.9,28.3-13.7,3.3-27.2,7-39.7,11.5-3.3,1.2-3.3,3.1,1,4.1,9.7,2,19.6,3.6,29.6,4.9v-.2ZM1628.2,934.9c11.9,13,40.2,32.6,58.3,39.1l-52.5,9.7c5.9-22.2-14.3-30.8-5.9-48.8h0ZM1633.9,754.9c2-.8,7.5,1.3,9.8,1.9,1.4.3.9,3.3.2,5.9-3.4.7-8.8-1.2-9.5-3-1-2-2.4-4-.4-4.9h0ZM1634.3,768.4c.7,3.9,2.2,8.2,4.5,11.5,0,1.8-9.8,10.8-21,20.3-2.8-13.7-5.6-23.2-6.3-27,4.4-3.2,16.5-6.6,22.7-4.8ZM1584.1,720.2c2-.7,6,.7,7.1,1.4,1.1.8.2,4.2.1,5.3,0,1.1-5,3.5-5,3.5,0,0-4.7-3.6-4.7-4.7h-.2c.8-1.9,1.7-3.7,2.7-5.5ZM1590.3,821.8c-6.2-12.5-11.2-25.8-9.9-45.1,6,0,14.7,3.8,26.2-1.4,0,0,3.6,10.7,7.1,28.3-8.6,7.2-17.5,14.1-23.4,18.2ZM1511.7,1039.6c-18.8-9.4-7.1-1.5-1.6-5.6,29.8,13.7,44.8,10.5,67,7.8,3.2,4.1,7.6,7.9,7.6,13.3-27.3,7.7-48.4-2.3-73-15.6h0ZM1618.9,1186.3c-1.7-14.4-2.6-24.6-9.2-31.5-5.3-14.4-20.6-54.3-31.4-90.3,6.6-6.5,11.7-3.1,16.1,14.8,4.2,14.4,9.2,26.4,13,38.4,5.1,12.1,8.9,28.3,12.8,36.8,0,0,3.4.6,5.3,5.2,9.6,26.7,12.1,31,10.4,43.7,2.3,10,16.3,1.8,15.1,14.2h-29.8,13.1c-9-9.7-2.6-23.9-15.4-31.2h0ZM1037.8,1210.2c-8.2,6.2-18.1,10.1-28.9,11.3-1.1-.3-2-2.5-2-3.8l-1.7-37.1c0-.4.6-.8,1-1,.9-.3,3.5-1.3,4.5-1.9.4-.2,1.4-.3,1.7,0l24.4,28.3c.9,1.1,1.6,3.4,1,4.3h0ZM1000.1,1222c-9.9-.3-19.1-3.1-27.3-7.6-.7-.9-.4-3.4.3-4.4l20.4-31c.2-.3,1-.3,1.5-.2.9.3,2.9.8,4,1,.5,0,1.3.7,1.3,1.1l1.8,37.2c0,1.3-1,3.6-2.1,4h0ZM948.7,1144.7c-1.3-.4-3.3-2.2-3.2-3.3,1.9-5.1,4.3-10,7.4-14.4,4.9-1.4,10.1-2.8,15.2-4.1l16.5,20.8h-.8c-10.7,1.4-20.7,2.1-30.1,2.2l-4.9-1.3h0ZM995.1,1102.2c1,.4,2,2.5,2,3.8l.2,2.9c-9.9,1.9-19.6,4.1-28.9,6.4-.6-1.2-.9-2.6-.4-3.3,7.9-5.4,17.1-8.7,27-9.8h0ZM989.9,1142.7l-16.7-21c8.1-2,16.3-3.8,24.5-5.4l1.1,24.6c-3.3.8-6,1.3-8.8,1.8h0ZM988.3,1149.3c0,.2,0,.5-.1.7-.8,1.1-1.5,2.3-2.1,3.5-.2.4-1,1.1-1.5,1l-12-3.3c5.1-.5,10.4-1,15.8-1.9h0ZM1010.5,1144.8c-.2.3-1,.3-1.5.2h-.2l1.7-.4v.2c0,0-.1,0-.1,0ZM1003.4,1139.7l-1.2-24.3c10.1-1.9,20-3.5,29.5-4.6-.1,1-.4,2-.9,2.9l-14.9,22.7c-4.4,1.3-8.5,2.3-12.5,3.3h0ZM1034.8,1116.3c.7-1.1,2.8-2.3,3.9-2.1,4.3,3.4,8.2,7.2,11.5,11.6-8.9,3-18.1,5.8-27.3,8.6l11.9-18.1h0ZM1001.9,1108v-2.3c-.1-1.4.9-3.8,2-4.1,6.3.2,12.2,1.4,17.8,3.3-6.6.9-13.1,1.8-19.8,3h0ZM1001.1,1101.6c.3,0,.6,0,.9,0h.8c0,0-1.7,0-1.7,0h0ZM914.8,1142.6c-3.2-1-2.5-2-.5-2.8,6.5-2.6,13.8-5.1,21.4-7.6-1.9,4.2-3.3,8.6-4.4,13.2-5.6-.4-11.1-1.3-16.5-2.8h0ZM942.6,1151.9c4.9.3,9.9.2,14.9,0l25.6,7c.3,0,.6.9.6,1.3,0,1,.2,3.6.5,4.8,0,.5-.3.8-.7,1l-34.1,15.1c-1.3.5-3.7.5-4.5-.4-2.1-6.1-3.3-12.5-3.4-18.9,0-3.4.5-6.7,1-9.9h.1ZM946.4,1185.5v-.2c0,0,0,.2,0,.2ZM948.3,1188.9c0-1.1,1.8-2.8,3-3.4l34.3-14.3c.3-.2,1,.3,1.3.7.6.7,1.5,1.8,2.3,2.6.4.3.7,1.3.5,1.6l-20.4,31.2c-.7,1.1-3,2.3-4,2-7.1-5.5-12.8-12.5-16.8-20.4h0ZM968.6,1212.1c-.3-.2-.6-.4-.9-.6l.9.6h0ZM1001.9,1222.1h0,0ZM1044.7,1204.4c-1,.6-3.5-.7-4.4-1.6l-24.3-28.2c-.3-.3,0-1,.2-1.4.7-1,1.2-2,1.7-3,.2-.4,1-1.1,1.5-1l35.9,10c1.1.3,3,1.5,3.4,2.6-3.1,8.6-7.7,16.4-14,22.7h0ZM1061.1,1173.5c-.6,1-3.3,1.3-4.6,1l-35.8-9.9c-.4,0-.7-.9-.7-1.3,0-1.4,0-2.8-.3-4.1,0-.5.2-1.4.6-1.6l34.7-13.2c1.2-.5,3.6-.2,4.4.6,1.5,5.4,2.6,11,2.6,16.9s-.4,7.9-1.2,11.7h0ZM1056.5,1136.4c0,1.2-1.8,3-3,3.5l2.3-.8-37,13.9c-.4.2-1-.3-1.3-.7-.8-1.1-1.7-2.2-2.6-3.2-.4-.3-.7-1.3-.6-1.6l3.2-4.8c11.3-3,23.4-6.8,36.2-11.2,1,1.6,2,3.3,2.8,5h0ZM1153.1,1083.3c-16.1,11.6-8.5,25.3-18.5,28-3.6-.5-23.9,3.2-27,4.6-6.8-6.4-13.8-11.7-24.3-14.5,19.9-8.2,51.5-16.3,69.7-18.1h0ZM1087.7,1112.2c-3.5,1.6-12.7,5.2-25.1,9.6-3.1-4.6-6.7-8.9-10.8-12.7,15.6-.8,28.2,0,35.9,3.2h0ZM1261.3,908.6c-24.3,24.5-21.2,61-18.4,89.7-5.6,4.1-12.5,7.5-17,10-2.6-35.3,1.2-87.9,35.4-99.7h0ZM652.6,921c-4.1-5.5-10.1-13.8-5.4-19.5,3.4-4.2,10.4-.9,14.5.9,3.5,1.8,30.7,16.5,38.1,18.5,55,13.7,124.6-6.5,168.2,33.1,2.1,2,3.7,3.9,3.2,6.6-64-43.6-160.4,20.9-218.6-39.5h0ZM704.4,991.4c4.5,2.7,6.4,10,11.4,14.1,8.2,13.6,23.6,18.2,31.8,30-2.8.2-5.5,0-8.2-.6-5.3-1.1-7.4-2.6-11.9-4.6-2.4-3.9-8.3-5.1-13-2.6-3.7.7-14,.2-20.9-1.6,1.3-10.9,11.9-21.4,10.9-34.6h0ZM640.3,1109.1l16.7,18.6c-12.1,0-23.8-.7-34.9-1.4-.9-1.2-1.3-2.3-1.1-3,2.1-4.5,4.7-8.6,7.7-12.5,3.7-.7,7.6-1.2,11.5-1.6h0ZM739.6,1113.7c2,3,3.7,6.1,5.3,9.4-8.2,1.2-17,2.1-26.2,2.9l13.1-11.2c3.3-2.6,7-2.1,7.8-1.1h0ZM728.1,1110.8l-18.6,15.8c-4.7.3-9.6.5-14.4.7l7.6-21.6c9.4.3,18.6,1,27.1,1.8-.4,1.2-.7,2.3-1.6,3.2h0ZM723.5,1207.8c-6.6,4.8-14,8.4-22.1,10.6-1.5-.2-4.2-2.4-5-5.7l-7.2-39.3c-.1-.5,0-1.1.6-1.3,1.4-.5,2.7-1.1,4-1.8.4-.3,1,0,1.3.3l26.9,29.5c2.6,3.1,2.5,6.7,1.6,7.7h0ZM666.6,1138.3c.3.3.5,1.1.2,1.4-.8,1-1.1,1.3-1.8,2.5-.2.5-.8.5-1.3.3l-29.9-10.7c9.2.5,18.5.8,27.8.8l5.1,5.6h0ZM696.3,1136.8c-.9-.8-1.9-1.5-3-2.1-.5-.3-.7-.7-.5-1.2l.6-1.5,10.4-.5-6.3,5.3c-.3.3-.9.5-1.3.1h0ZM689.2,1127.4c-2.6,0-5.1.2-7.7.3h-.1l-4.1-22.1c1.3,0,2.5-.2,3.8-.3,5.4,0,10.7.2,16.1.3l-7.9,21.8h0ZM671.8,1105.9l4,21.7c-3.8,0-7.6,0-11.4,0l-17.8-19.4c8.2-1,16.5-1.7,25.2-2.3h0ZM676.3,1132.6c0,.1,0,.4-.2.5-1.4.5-2.7,1.1-4,1.9-.5.3-1,0-1.3-.3l-1.8-2c2.4,0,4.9,0,7.3,0h0ZM619.6,1126c0-.3.3-.6.4-.9-.1.3-.3.6-.4.9h0ZM616.5,1136c.8-1.2,4.3-2.7,7.6-1.6l37.7,13.4c.4.1.8.7.7,1.2-.2,1.2-.3,2.5-.3,3.7,0,.5-.4.8-.9,1l-39.3,7.3c-3.9.6-6.6-1.3-7.2-2.6-.2-2-.6-3.8-.6-5.8,0-5.7.9-11.2,2.2-16.5h0ZM617.2,1171.4c.1-1.5,2.4-4.4,5.8-5.2l39.2-7.2c.5-.1,1,.2,1.2.7.4,1.1.5,1.6,1.3,2.8.2.5,0,.9-.3,1.3l-31.2,25.1c-3.4,2.5-6.9,2-7.7,1-3.6-5.8-6.3-12-8.2-18.5ZM626.6,1191.7c-.3-.4-.7-.8-.9-1.3.2.4.6.9.9,1.3h0ZM633.9,1200.6c-.7-1.1-.2-5.3,2.6-7.6l31.2-24.9c.3-.5.9-.6,1.3-.2.9.8,2.3,1.9,3.5,2.5.5.3.7.7.4,1.3l-13.5,37.6c-1.5,3.8-4.5,5.3-5.8,5-7.3-3.5-13.9-8.1-19.6-13.8h0ZM656.8,1216.1c-.4-.1-.8-.3-1.2-.5l1.2.5h0ZM666.2,1219c-1.3-.8-3-4.2-1.9-7.5l13.6-37.8c.1-.5.6-.8,1.1-.7,1.2.2,2.3.3,3.7.3s.9.5,1,1l7.3,39.4c.6,3.8-1.2,6.3-2.5,7.1-1.8.1-3.7.6-5.6.6-5.8,0-11.4-.9-16.7-2.3h0ZM731.1,1201.6c.3-.3.7-.7.9-1-.3.3-.6.7-.9,1ZM733.5,1198.8c-1.2.8-5.1.5-7.6-2l-26.7-29.8c-.3-.3-.5-1,0-1.4.7-.8,1.3-1.6,1.7-2.6.2-.5.8-.6,1.3-.3l38.2,13.6c4,1.5,4.9,4.7,4.6,5.9-3,6.1-6.8,11.7-11.3,16.6h-.2ZM745,1181.6c.6-1,1.2-2.6,1.8-4.2-.6,1.4-1.2,2.8-1.8,4.1h0ZM749.4,1169.1c-.5,1.3-4,3.1-7.5,2l-38-13.6c-.4-.1-.8-.7-.8-1.2.2-1.3.3-1.8.3-3.2s.5-.8.9-1l40.1-6.3c4-.5,6.5,1.4,6.9,2.7,0,1.3.3,2.6.3,4,0,5.7-.9,11.2-2.2,16.5h0ZM749.3,1135.5c0,1.6-2.3,4.4-5.7,5.1l-39.9,6.3c-.5,0-1-.2-1.2-.7-.4-1.4-1-2.7-1.6-4-.3-.4-.2-.9.2-1.3l11.9-10.1c11.3-.9,22.6-2.1,33.7-3.8,1.1,2.8,1.9,5.6,2.6,8.6h0ZM769.8,1114.8c2.6.8,3.5,2.5.2,3.4-3.4.9-7.6,1.6-11.5,2.5-1.5-3.5-3.5-6.7-5.4-9.9,6.2,1.2,11.9,2.5,16.7,4h0ZM704.6,1100.2l1.6-4.7c1.5-3.8,4.6-5,6.1-4.8,6.4,3.1,12.3,7.1,17.5,11.9-8.4-1.1-16.8-1.9-25.2-2.3h0ZM699.4,1086.1c1.2.9,2.8,4.4,1.8,7.7l-2.2,6.3c-6.1-.3-12.1-.6-18.2-.5-1.6,0-3.1.3-4.7.3l-1.5-8.4c-.6-3.9,1.2-6.4,2.6-7,2-.2,3.8-.6,5.8-.6,5.7,0,11.2.9,16.5,2.2h0ZM664.2,1086.7c1.5.2,4.3,2.4,5.1,5.8l1,5.4c-3.4-3.1-6.5-6.5-9.3-10.1l3.2-1h0ZM661.9,1101c-6.4.6-12.8,1.3-19,2.3-1.3-2.6-1.4-4.9-.7-5.8,3.1-2.3,6.5-4.3,10.1-6.1,2.8,3.2,6.1,6.5,9.6,9.6ZM592.6,1119.5c5.1-1.8,11.4-3.6,18.3-5.2-1.8,3.4-3.4,6.9-4.8,10.5-4.7-.6-9.6-1.1-13.5-1.8-3.4-.6-2.5-2.5,0-3.4h0ZM1802.2,924.3c-1.4,1.2-1.8,2.7-.7,3,2.1.4,3.3,1.1,5.7,3.4,1.3.7,1-1.4.7-2.5-1.3-3.2-4.1-5.1-5.6-3.8h0Z"/>
  <path class="st0" d="M1752.7,1217.7h-64.8c-.8,4.4,4.3,7.6,7.2,11h70.8l19.8-9.6c3.5-8.6-3.6-16.1-3.3-23.1,1.2-20.6-10.3-41.2-16.4-60.1,4-4.2,8.9-13.8,15.4-11.3,15.2,23.6,18,53.7,15.4,83.7-1.5,7.4-14.2,14.2-13.8,21.2.2,2.4,16.8,1.4,23.7-4.4,1.2-4.8,10.1-10.7,13-11.4,3.2-9.1-1.8-8.8-1-14.2,1.6-3.8-.5-44.7-3.4-49-1.1-.7-1.4-.7-1.5-.6-3.2-8.1,4.5-20.5,7.6-28.2l22.6-2c-2.7-20.1-9.9-41-14.4-61.6,2.8-4.8,7.8-8.6,12.4-11.3,23.8-15.7,2.8-41.1,2-60.6-4.1-10.1-18-18.1-19.3-29.3,2.9,2.2,5.1,1.3,5.7,1.5,6.8-4.7,6.5-11.4,3.1-19.9,10.3-12.3,16.7-18,18.6-21.9-.7-10.3-17.2-25.7-27-25.7-5.7,3.2-9.6,9.6-20.1,17.7-.3.4-12.7-4.3-16.4-.3-3.6,3-2.4,12.5,4.3,17.7-.8,2.5-1.6,3.5-3,6.6-.7,1.5-1.1,3.1,0,4,2.2,2,3,5,1.4,9.8-1.6,5,4,8.7,5.9,9.4.3,0,1,.8,1.6,1.6.7,5.5-18.1,15.5-18.1,19.8-1.5,13-9.6,11.7-17.4,54.2,1,10.3.9,19.4.1,27.6-9.6,25.4-17.5,40.1-24,58.5-5.4,15.2,24.9,59.1,25.4,89-6.6,9.9-11.9,8.5-12.3,11.4h0ZM1801.9,1172.1c-1.5-4.1-2.8-9.8-2-14,2.6-2.5,7.6-.7,10.1-1.1,3.1,14.2,3.8,16.1-8,15.2h0ZM1802.2,962.6c.9-.7,1.6-2.8,2.1-3.5,10-6.4,3.1-1.8-6.8-7-3.2-1.6-3.3-4.7-2.9-9.1.6-5.4-1.6-6.5-2.5-8.2-.3-.7,1.2-3.4,2.5-5.3,2.3-3.5,4.4-10.7,5.5-12.5,16.5.7,12.9,8,13.3,9.3,1.3,3.6,8.2,11.2,11.6,13.6-1,10-8.8,4.1-5.3,13.2-.9,17.3-21.5,15.2-30.3,29.4-.9-14.1,11.5-14.1,12.9-19.9h0ZM1783.4,1037.2c4.5,4.1,9.2,9.2,12.7,10,2.4,5.9-4.9,6.8-7.6,9.6-6.2.9-8.5-5.6-12.1-2.6-.8.7-4.5,0-4.4-.8,2-5.3,7.5-12.9,11.4-16.1h0ZM1744.3,1125.5c-2.3-12,13.6-30.6,24.3-67.2,4.3-1.5,6.7,8.5,12.9,4.6,9.6.2,5.5,25.1,14.4,9.3-.2-7-.4-14.8,5.1-18.6,6-1.4,9.9,2,10.3,7.2l-9.2,14.4c17.5.7-5.6,28.7,17.5,23.6-.8,10.5-6.4,40.1-10.5,38.6-3.2-16.4-5.7-9.6-5.7-4.7.7,6.4.5,11.5,4.3,16.7-1.3,1.3-5.9,1.2-7.2,1.5-13-18.6-12.5-44.2-20.9-64.4-1.4,0-3.2,1.6-3.1,3.1-1,12.2-5.7,29.8-15.8,35.6-6.3,3.7,13.8,1.4-2.6,9.2,6.3,4.2.5,9.8-6.4,9.8-3.4-7.3-6.1-13.4-7.1-18.7h0ZM1761.6,1165.9c-2.4-2.8-6-10.8-7.5-14.2l9.6-4c3,3.3,5.9,9.4,6.4,14.8-2.1,1.2-5.1,3.1-8.4,3.4ZM1454,969.5c-1.4-19.4,6.6-35.9-2.5-56.7,0-8.6,6.1-15.2,4.5-23.1l-14.7,3.6c-2.2,16.3-4.9,21.7-2.7,37.1,3.9,17.6,5.9,33.7,15.4,39.1h0ZM1301.8,1023.9c56.4-15.8,95.2-29.3,141.9-48.9-19.4-41.5-15.2-53.5-13.5-80.1,0,0-23.7.3-51.3-7-32.7,21.1-70.9,96.6-77.1,136h0ZM1495.2,1035.9c-3-3,1.4,1.8,0,0ZM1562.9,910.1c-23.7-16.3-42.1-54.4-68-51.8-2.5-28-14.7-75.6,24-125.7,5-2.3,13.2-3.2,16.3-6.9-15.8-1.6-36.6,8.1-51.7-.4,0,0,7,12.2,15.1,14-5.3,7.2-15.7,12.4-9.4,25-12.9,7.7-8,19.2-4.1,25.4-6.5,6.7-10.4,18.6-1.8,25.9-10.5,11.3,2.5,20.9,5.6,24.7-5.3,11.3-.2,20-.2,20-.2,8.1-14.7,19.8-19.9,23.5-6.3,19.1-3.9,57.6-2.9,83,35.3-16.9,69.9-33,97-56.9h0ZM1157.6,1585.7c0-20.1-13.4-43.8-31.8-55-4.5-2.7-9.6-4.4-14.8-4.8,4.5.3,10.5,0,16.2-2.4.2,0,.4-.1.6-.1,18.7-8.3,41.3-32.5,41.3-73.2s-13-54.4-34.9-70.4c-20.6-14.9-44.9-18.3-69.3-18.3h-191.8v48.8h43.2v245.7h-43.2v48.6h136.2v-48.6h-42.6v-108.2h94.1c32.5.4,45,21.7,45.7,40.1l2.4,116.7h94.1v-48.5h-44l-1.3-70.3h0ZM1070.9,1500.7h-104.3v-90.3h98.7c10.2,0,22.9-.3,32.9,4.7,12.1,6.2,23.5,19.4,23.5,41.1s-22.9,44.5-50.7,44.5h0ZM856,1825.2h-65v196h29v-84.8h32.2c46.8,0,68.1-24.1,68.1-54.8s-20.1-56.4-64.2-56.4h0ZM854.8,1911.1h-34.8v-60.6h36c26.4,0,34.3,15.5,34.3,29.8s-13.8,30.8-35.5,30.8h0ZM1032.9,1824l-86.7,197.1h31.3l23.7-57.8h85.8l24.6,57.8h32l-90.3-197.1h-20.4,0ZM1012.5,1938.1l30.2-77.4,32.5,77.4h-62.7,0ZM1440.6,1825.2h29v196h-29v-196ZM1590.2,1871.2c0-13.8,14.1-23.3,33.7-23.3s32.1,4.6,50.2,20.4v-32c-14.3-8.9-30.8-13.6-47.6-13.7-39.1,0-64.8,20.3-64.8,52.3,0,53.7,92.4,58.3,92.4,98.9s-10.9,24.6-34.8,24.6-40.7-10.1-56.4-28.3v35.6c17.9,12.4,36.6,18.1,59.8,18.1,34.4,0,59.8-22.5,59.8-53.2.1-62.4-92.3-61.8-92.3-99.5h0ZM1338.1,1982.4c-15.7-24.4-27.2-42.5-45.8-54.3,22-8.3,34.3-25.3,34.3-47.9,0-33.9-26-54.9-67.6-54.9h-51.9v196h29.6v-85.1h12.4c15.1,0,27.5,4.6,54.6,44.8l25.9,40.3h34.7l-15.3-22.8c-3.8-5.2-7.5-10.6-11-16ZM1255.7,1910.8h-18.9v-61.5h19c28.7,0,40.1,11.2,40.5,29.6.2,16.5-8.8,31.9-40.5,31.9h0Z"/>
</svg>