<?xml version="1.0" encoding="UTF-8"?>
<svg id="Layer_1" xmlns="http://www.w3.org/2000/svg" version="1.1" viewBox="0 0 2500 2500">
  <!-- Generator: Adobe Illustrator 29.2.1, SVG Export Plug-In . SVG Version: 2.1.0 Build 116)  -->
  <defs>
    <style>
      .st0 {
        fill: #fffaf0;
        fill-rule: evenodd;
      }
    </style>
  </defs>
  <path class="st0" d="M2204.6,2235.9h26.4v223.5l-161.6-169.2v160.9h-27.2v-225.8l162.4,170v-159.4h0ZM1444.9,2235.9v136.7c0,24.2-6.8,43.8-20.4,58.9-14.3,16.6-34,24.2-58.9,24.2s-43-7.5-57.4-24.2c-14.3-15.1-21.2-34.8-21.2-58.9v-136.7h27.2v127.6c0,44.6,16.6,67.2,51.3,67.2s52.9-22.7,52.9-67.2v-127.6h26.4ZM1527.9,2235.9h129.1v24.9h-51.3v190.3h-25.7v-190.3h-52.1v-24.9ZM1481.1,2235.9h27.2v215.2h-27.2v-215.2h0ZM1243.2,2235.9h29.5l-93.7,227.3-93.6-227.3h29.5l64.2,159.4,64.2-159.4h0ZM1992.4,2343.9c0,24.2-8.3,44.6-25.7,61.9-15.9,16.6-36.3,24.9-59.7,24.9s-43.8-8.3-61.2-24.9c-17.4-17.4-25.7-37.8-25.7-61.9s7.5-44.6,24.2-61.2c16.6-17.4,37.8-25.7,62.7-25.7s45.3,8.3,61.2,25.7c15.9,16.6,24.2,37,24.2,61.2ZM1986.3,2264.6c-22.6-21.9-49.1-33.2-79.3-33.2s-57.4,11.3-80,33.2c-21.9,21.9-33.2,48.3-33.2,79.3s11.3,58.2,33.2,80c21.9,21.2,48.3,31.7,80,31.7s58.2-10.6,79.3-31.7c21.9-21.9,33.2-48.3,33.2-80,0-30.9-11.3-57.4-33.2-79.3ZM1787.7,2235.9v24.9h-50.6v190.3h-27.2v-190.3h-51.3v-24.9h129.1,0ZM538.6,2282.7c15.9,16.6,23.4,37,23.4,61.2s-8.3,44.6-24.9,61.9c-16.6,16.6-37,24.9-60.4,24.9s-43.8-8.3-61.2-24.9c-15.9-17.4-24.9-37.8-24.9-61.9s8.3-44.6,24.2-61.2c16.6-17.4,37-25.7,61.9-25.7s46.1,8.3,61.9,25.7ZM555.9,2264.6c-22.7-21.9-49.1-33.2-79.3-33.2s-58.1,11.3-79.3,33.2c-22.7,21.9-34,48.3-34,79.3s11.3,58.2,34,80c21.2,21.2,47.6,31.7,79.3,31.7s58.2-10.6,79.3-31.7c22.7-21.9,33.2-48.3,33.2-80s-10.6-57.4-33.2-79.3h0ZM638.3,2363.5c0,44.6,17.4,67.2,52.1,67.2s52.1-22.7,52.1-67.2v-127.6h26.4v136.7c0,24.2-6.8,43.8-21.2,58.9-14.3,16.6-34,24.2-57.4,24.2s-43-7.5-57.4-24.2c-15.1-15.1-21.9-34.8-21.9-58.9v-136.7h27.2v127.6h0ZM295.4,2235.9v191.1h65.7v24.2h-92.1v-215.2h26.4ZM942.6,2324.3c36.3,14.3,53.6,35.5,53.6,64.2s-6.8,35.5-20.4,48.3c-12.8,12.8-28.7,18.9-47.6,18.9s-32.5-5.3-45.3-17.4c-12.1-11.3-19.6-25.7-21.9-43l27.2-6.1c0,12.1,3.8,21.9,12.1,30.2,8.3,7.5,17.4,11.3,29.5,11.3s20.4-4.5,28.7-12.8c6.8-7.5,10.6-17.4,10.6-29.5s-12.1-30.2-37-40.8l-15.1-5.3c-30.2-14.4-46.1-32.5-46.1-55.1s6.8-31,18.9-40.8c12.8-10.6,27.2-15.1,44.6-15.1,24.9,0,43,11.3,55.1,33.2l-21.1,12.1c-8.3-12.8-19.6-19.6-34.7-19.6s-18.1,2.3-24.9,7.5c-7.5,6-11.3,13.6-11.3,22.6,0,12.8,9.8,22.7,31,30.2l14.4,6.8h0ZM805.2,2235.9h27.2v215.2h-27.2v-215.2ZM1865.7,290.2l-520.9,1229.4-143.7-315.3,265.4-722.5c20-55.9,89.8-81.8,207.6-81.8l41.9-109.8h-618.7l-39.9,109.8c87.8,0,123.7,25.9,109.8,81.8l-131.7,367.2-259.4-558.8c-47.9-59.9-24-89.8,69.9-89.8V70.7H247.1v129.7c111.8,0,181.6,29.9,211.6,89.8l439.1,934-205.6,548.8c-4,73.8-119.7,109.8-343.3,109.8l-41.9,109.8h1708.4l237.5-504.9h-123.7c-115.7,261.4-249.5,395.2-399.1,395.2h-784.4l115.8-309.4,99.8,199.6h223.5L2015.4,290.3c29.9-89.8,107.8-137.7,229.5-137.7V36.8h-514.9v115.8c155.7,0,199.6,47.9,135.7,137.7h0Z"/>
</svg>