<?xml version="1.0" encoding="UTF-8"?>
<svg id="Layer_1" xmlns="http://www.w3.org/2000/svg" version="1.1" viewBox="0 0 2500 2500">
  <!-- Generator: Adobe Illustrator 29.2.1, SVG Export Plug-In . SVG Version: 2.1.0 Build 116)  -->
  <defs>
    <style>
      .st0 {
        fill: #fffaf0;
        fill-rule: evenodd;
      }
    </style>
  </defs>
  <path class="st0" d="M151.7,1426.8h-32c-2.7,0-9.4,0-9.4-4s1.3-4,5.3-5.3c29.4-9.4,36-25.4,36-48v-238.9c0-21.4-6.7-37.4-36-48.1-4,0-5.3-2.7-5.3-4,0-5.3,6.7-4,9.4-4h264.2c60.1,0,109.4,48,109.4,108.1s-49.4,108.1-109.4,108.1h-133.5v81.4c1.3,21.3,8,36,36,45.4,4,1.3,5.3,2.7,5.3,5.3,0,4-6.7,4-9.3,4h-130.8ZM2121.5,1297.4h62.7l-62.7-106.8-6.7-10.7-56,117.5h62.7ZM2121.5,1073.2h42.7l178.8,315c5.3,8,12,16,20,20,6.7,5.3,14.7,6.7,21.3,9.4,2.7,1.3,5.3,2.7,5.3,5.3,0,4-6.7,4-9.4,4h-158.8c-2.7,0-10.7,0-10.7-4s2.7-4,5.4-5.3c8-2.7,13.3-6.7,16-14.7,2.7-9.4,0-14.7-6.7-26.7-9.1-19.3-18.4-38.4-28-57.4h-149.5l-1.3,2.7c-1.3,5.3-12,24-20,44-10.7,21.3-14.7,26.7-12,37.4,1.3,8,8,12,16,14.7,2.7,1.3,4,2.7,4,5.3,0,4-6.7,4-9.4,4h-73.4c-2.7,0-9.4,0-9.4-4s1.3-4,5.3-5.3c6.7-2.7,14.7-4,21.3-9.4,8-4,14.7-12,20-20l9.4-20,101.4-212.2-14.7-25.4c-13.3-21.4-26.7-34.7-41.4-42.7-6.7-4-13.3-4-20-6.7-4-1.3-5.3-2.7-4-5.3,0-2.7,2.7-1.3,4-2.7h97.4s0,0,0,0ZM1722.4,1425.5h5.3c245.6,0,242.9-351,0-351h-201.5c-4,0-10.7-1.3-10.7,4s2.7,4,5.3,4c29.4,9.3,36,25.4,37.4,45.4v244.2c-1.3,21.3-8,36-37.4,45.4-2.7,1.3-5.3,2.7-5.3,5.3,0,4,6.7,4,10.7,4h129.5v-1.3h66.7s0,0,0,0ZM1722.4,1099.9c37.4,0,68.1,30.7,68.1,68.1v162.8c0,37.4-30.7,68.1-68.1,68.1h-66.7v-298.9h66.7ZM1214,1297.4h62.7l-62.7-106.8-6.7-10.7-56,117.5h62.7ZM1214,1073.2h44l178.8,315c4,8,10.7,16,18.7,20,6.7,5.3,14.7,6.7,22.7,9.4,2.7,1.3,5.3,2.7,5.3,5.3,0,4-8,4-10.7,4h-158.8c-2.7,0-9.4,0-9.4-4s1.3-4,5.3-5.3c6.7-2.7,13.3-6.7,14.7-14.7,2.7-9.4,0-14.7-5.3-26.7-9.4-20-20-38.7-29.3-57.4h-149.5l-1.3,2.7c-1.3,5.3-10.7,24-20,44-9.3,21.3-14.7,26.7-12,37.4,2.7,8,8,12,16,14.7,2.7,1.3,5.3,2.7,5.3,5.3,0,4-6.7,4-10.7,4h-72.1c-2.7,0-10.7,0-10.7-4s2.7-4,5.3-5.3c8-2.7,14.7-4,22.7-9.4,6.7-4,14.7-12,18.7-20l9.3-20,102.8-212.2-14.7-25.4c-13.3-21.4-28-34.7-41.4-42.7-8-4-13.3-4-21.4-6.7-2.7-1.3-5.3-2.7-4-5.3,1.3-2.7,4-1.3,5.3-2.7h96.1ZM773.6,1306.7c30.7,10.7,68.1,13.3,97.4,4l116.1,100.1,9.3,8c1.3,1.3,1.3,2.7,1.3,4,0,4-6.7,4-9.4,4h-122.8l-92.1-76.1-74.7-60.1v82.8c1.3,20,9.4,34.7,37.4,44,2.7,1.3,4,2.7,4,5.3,0,4-6.7,4-9.4,4h-161.5c-4,0-10.7,0-10.7-4s2.7-4,5.3-5.3c32-10.7,36-26.7,37.4-52v-230.9c-1.3-24-5.3-41.4-37.4-52-2.7,0-5.3-2.7-5.3-4,0-5.3,6.7-4,10.7-4h260.2c59.5-.3,107.9,47.7,108.1,107.2,0,.3,0,.6,0,.9.3,59.4-47.7,107.8-107.2,108.1-.3,0-.6,0-.9,0h-84.1c4,8,13.3,10.7,21.3,14.7,2.7,0,4,1.4,6.7,1.4h0ZM773.6,1265.4h10.7c34.7,0,64.1-37.4,64.1-85.4s-29.4-84.1-64.1-84.1h-85.4v169.5h74.7,0ZM326.5,1095.9h-76.1v169.5h88.1c36,0,64.1-37.4,64.1-85.4s-28-84.1-64.1-84.1h-12Z"/>
</svg>