<?xml version="1.0" encoding="UTF-8"?>
<svg id="Layer_1" xmlns="http://www.w3.org/2000/svg" version="1.1" viewBox="0 0 2500 2500">
  <!-- Generator: Adobe Illustrator 29.2.1, SVG Export Plug-In . SVG Version: 2.1.0 Build 116)  -->
  <defs>
    <style>
      .st0 {
        fill: #fffaf0;
        fill-rule: evenodd;
      }
    </style>
  </defs>
  <path class="st0" d="M2225.6,1017.9h237.6v37.9c-6.9-2.3-14.1-3.5-21.4-3.5h-136.6v176.9h132.9c9.5,0,18-1.1,25.1-2.8v37.7c-6-1.4-14.3-2.1-24.6-2.1h-133.4v182.9h132.5c7.3,0,15.9-1.1,25.5-3.3v40.7h-237.3c1.8-6.7,2.8-14,2.8-21.9v-419.9c0-9.2-1.1-16.8-3.2-22.5h0ZM2170.6,1138.4l-68.6-.5c-3.4-38.6-25.5-75.9-74.1-82.8-104.2-9.4-133.6,105.1-130.9,188.8,2.7,80.7,15.6,204.7,123.1,204.7s88.5-46.4,87.1-85.5l63.5-.5c-4.6,80.7-97.1,127.4-141.2,129-150.5,5.1-213.5-95.2-216.7-238.3-2.8-129.7,50.2-244.9,199-244.9,127.4,1.8,152,77.1,158.9,130h0ZM1099.9,1429.4l45.5-38c23.7,39.1,43.2,57,90.2,57s87.9-29,87.9-80.3-10.3-46-30.6-61.6c-9.2-7.3-32.6-19.8-69.3-37.3-55-26.4-108.6-60.7-108.6-129.7s74-125.4,152-128.3c46.2-1.8,103.5,23.7,126.7,52.4l-46.2,35.6c-16.8-31.3-49.4-50.9-84.9-50.9-58.9,0-105.6,68.3-56.8,115.4,12.4,12,37.7,26.9,76.2,44.6,61.6,28.8,114.1,63.3,114.1,139.6s-6.9,50.9-20.5,73.4c-27.4,45.3-73.3,67.9-137.3,67.9-73.6,0-88.1-16.8-138.4-59.6h0ZM452,1017.9h237.4v37.9c-6.9-2.3-14.1-3.5-21.4-3.5h-136.6v176.9h132.9c9.6,0,18.1-1.1,25.1-2.8v37.7c-6-1.4-14.3-2.1-24.4-2.1h-133.6v182.9h132.5c7.3,0,15.9-1.1,25.5-3.3v40.7h-237.1c1.6-6.7,2.7-14,2.7-21.9v-419.9c0-9.2-1.1-16.8-3-22.5h0ZM36.8,1017.9h86.3v4.2c0,3.9,1.2,9,3.4,15.6l121.7,366.4,124.9-368c1.9-6.2,3-12.2,3-18.2h41.9c-4.2,7.4-7.4,14-9.4,19.8l-142.6,425.5c-1.4,4-2.7,10.4-3.7,18.9h-70.8c-1.1-6.4-2.7-12.8-4.8-18.9l-139.7-422.2c-1.6-3.9-5-11.9-10.1-23.2h-.2ZM953.7,1259.9c56.6-11.1,100-54.5,100-116.4s-67.9-125.6-144-125.6h-139.1c1.9,7.1,3,14.5,3,22.3v419.7c0,9-1.1,16.6-3,22.3h82.8c-2-7.3-3-14.8-3-22.3v-192.8l26.5,2.8,138.7,212.3h83.3l-145.3-222.2h0ZM939.4,1224.5c-15,10.6-33.1,15.9-53.8,15.9h-35.4v-188.8h31.7c27.1,0,48.1,6.7,63.2,20.2,20.5,18.6,31,43.7,31,75.2s-12.2,59.8-36.6,77.5h0ZM1798.9,1462.8l-154.6-429.6c-1.7-5-2.7-10.1-3-15.4h-66.9c0,5.5-.9,11.3-3,17.2l-149.8,427.8c-1.9,6.2-5.1,12.5-9.4,19.3h43.2c-.3-6.5.6-13.1,2.7-19.3l44.4-126.2h170.7l43.9,126.2c2.3,6.9,3.4,13.2,3.4,19.3h89.5c-5.1-7.2-8.8-13.8-11-19.3h0ZM1514,1302.6l72.2-209.7,74.1,209.7h-146.3Z"/>
</svg>