<?xml version="1.0" encoding="UTF-8"?>
<svg id="Layer_1" xmlns="http://www.w3.org/2000/svg" version="1.1" viewBox="0 0 2500 2500">
  <!-- Generator: Adobe Illustrator 29.2.1, SVG Export Plug-In . SVG Version: 2.1.0 Build 116)  -->
  <defs>
    <style>
      .st0 {
        fill: #fffaf0;
        fill-rule: evenodd;
      }
    </style>
  </defs>
  <path class="st0" d="M1999.3,1296.9v-95.7h88.7v-19.1h-88.7v-96c27.9-3.3,59.1-3.3,92,0l2-17.5h-125.6v233.4l-71.2-83.6v-15.4c32.9-10.4,50.4-34.9,50.4-73.2s-40-61.1-73.2-61.1h-79.9v250.9h38.3v-235.1c34.9,0,71.2,12.1,71.2,50.7s-19.2,57.4-48.7,66.2l1.7,15.4,111.5,130.6,45.3,8.7-31.3-36.6h111.5l20.8-45.3c-38.3,22.8-78.2,29.9-114.8,22.8h0ZM1757.2,1068.6h-19.2v143.1c0,52.1,0,94-45.3,94s-50.4-24.5-50.4-90.7v-146.4h-29.9v153.5c0,67.8,10.7,109.5,80.3,109.5s64.5-78.2,64.5-113.2v-149.8ZM954.5,1319.4h29.6v-250.9h-29.6v250.9ZM1529.1,1068.6l-12.4,23.2-120.2,227.7h36.6l48.7-101.1h59.4l22.5,101.1h36.6l-64.5-250.9h-6.7ZM1516.7,1190.5h-20.8l20.8-45.7,5.4-11.8,15.4,57.4h-20.8Z"/>
  <path class="st0" d="M1361.9,1381.2l88-405.7h-36.6l-19.1,93h-183.4v191.8l-162.2-191.8h-22.5v250.9h22.5v-191.4l162.2,191.4h25.8v-229.7c17.5-5.4,31.6-5.4,47,3.3v226.4h29.2v-226.4c14.1-11.4,49-12.1,74.9,5.4l-59.8,303.9,188.7-4,17.5-.3,7-34.3-24.5,2.3-154.8,15.1h0ZM874.6,1068.6l-12.4,23.5-90.3,173.3c-3.7-13.8-8.7-25.9-17.5-34.6-34.9-47-118.6-106.5-123.6-167.3-3.7-43.7,29.5-74.9,73.2-78.2,31.2-2,74.9,24.2,87,48.7l27.9-17.5c-22.8-40-83.6-50.4-118.6-50.4s-59.1,18.8-79.6,40.3c-16.1,16.5-26.8,34.6-28.2,46.7v19.2c-55.8-20.8-120.2-5.4-116.9,71.2,3.7,45.3,81.9,73.2,92.3,99.4,10.4,24.5,17.5,57.4-31.2,59.1-40.3,3.7-55.7-24.2-55.7-27.9-17.5,22.8-104.4,33.2-113.2,22.8v-97.7h88.7v-19.1h-88.7v-94c27.9-3.3,59.1-3.3,92.4,0l1.7-19.1h-125.6v1.7h-10.4l-88.7,179.7-31.6-179.7h-10.4l69.9-94h-33.2l-116.5,172.6h-10.4l-43.7-172.6h-29.5l38.3,207.5-41.6,210.6h32.9l50.4-208.9,66.5-89,40,224.7h12.1l106.1-214.3v214.3h125.6l10.4-17.5c15.8,15.8,38.3,17.5,59.1,17.5h19.2v47c17.5,15.4,42.7,28.2,70.2,34.3,47,11.1,100.8,3.4,133.7-39.3,8.7-12.4,13.8-26.2,17.5-42h7.1l48.7-101.1h59.1l22.5,101.1h36.6l-64.5-250.9h-6.7s0,0,0,0ZM662,1390.9c-17.1-.7-30.5-3-41.3-7.4-29.2-11.4-41.3-35.6-61.5-65.8,59.1-7.1,66.2-43.6,47-87-15.8-31.6-104.4-78.6-104.4-109.8,0-52.4,69.5-52.4,92.3-7.1l3.4-12.1c5.4,15.1,13.4,28.5,23.2,41,31.9,41.6,81.6,72.9,105.8,115.8,34.9,64.5-5.4,132.3-64.5,132.3h0ZM862.2,1190.5h-20.8l20.8-45.7,5.4-11.8,15.8,57.4h-21.2ZM2326.4,1068.6h-25.9v191.8l-162.2-191.8h-22.5v250.9h22.5v-191.4l162.2,191.4h25.9v-229.7c17.5-5.4,31.6-5.4,47,3.3v226.4h29.9v-226.4c15.4-12.1,34.6-10.4,67.8,1.7v-26.2h-144.7,0ZM1042.5,1474.2c-6,0-12.4,2-18.8,6.1-6.4,4-11.4,9.4-15.1,16.5-3.8,6.3-5.8,13.5-5.7,20.8,0,3,.7,6.4,2,9.4,1.3,3,3.7,5.4,6.7,6.7,3,1.7,6.4,2.7,10.4,2.7,5.7,0,11.4-1.7,16.8-4.7,4-2.4,8.1-6,12.4-11.1l-2-1.7c-2.7,2.8-5.9,4.9-9.4,6.4-3,1.3-6,2.4-8.7,2.4s-6-1.3-8.4-4c-2.4-2.3-3.4-5.7-3.4-10.1s1-11.1,3.4-17.1c2.3-5.7,5.4-10.8,9.7-14.8,3.4-2.7,6.7-4.4,10.4-4.4s2.3.3,3.4,1c.7.7,1,1,1,2s-1,2-2.7,3c-2,1.7-3.3,4-3.3,6.1s.7,3.4,2,4.7c1.3,1.3,3.2,2.1,5,2,2.4,0,4.6-1.1,6-3,2-1.9,3.1-4.6,3-7.4,0-3.1-1.3-6.1-3.7-8.1-2.7-2.3-6.4-3.3-11.1-3.3h0ZM1111.7,1476.6c-3-1.5-6.4-2.3-9.7-2.4-3.7,0-7.3.7-10.8,2-1.4.4-2.8,1-4,1.7-4.9,2.4-9.2,5.7-12.7,9.7-3.7,3.7-6.7,8.4-9.4,13.8-2.4,5-3.3,10.8-3.3,16.8s1.3,9.4,4.7,12.8c3.4,3.7,7.7,5.4,13.8,5.4s7.4-.7,11.1-2c10.1-3.8,18.5-11.2,23.5-20.8,4-6.7,6-13.8,6-20.8s-.7-6.7-2.4-9.4c-1.5-2.9-3.8-5.2-6.7-6.7h0ZM1102,1502.8c-1.7,6.7-4,12.8-6.7,18.1-1.2,2.4-2.6,4.8-4,7.1-.8,1.3-1.8,2.4-3,3.4-1.2,1-2.8,1.6-4.4,1.7-1.7,0-3.3-.8-4.4-2-1.3-1.3-1.7-3-1.7-5,0-8.1,1.7-17.1,5.7-27.2,2.7-7.4,5.4-12.8,7.7-16.1.7-1.3,1.7-2,2.4-3,1.6-1.4,3.6-2.1,5.7-2,1.5,0,2.9.8,3.7,2,1.3,1.3,1.7,3,1.7,5.4,0,5.4-.7,11.4-2.7,17.8h0ZM1147.3,1526.6c-.7.7-1.3,1-2,1s-1,0-1.3-.7c-.3-.4-.3-.7-.3-1.3,0-1,.7-3.7,1.7-8.1l20.1-67.8,1.3-5.4h-3.7l-21.8,4-1,2.4c2.7,0,4.4.3,5.7,1,1,.7,1.3,1.7,1.3,2.7s-.7,3-1.3,6.4l-17.8,60.1c-1,3.4-1.3,6.1-1.3,7.7s.7,3.7,2.3,5.4,4,2.4,7.1,2.4,5.7-1,8.7-3c3.7-2.7,7.7-7.4,12.1-14.1l-2.7-1c-2.3,4-4.7,7-7.1,8.4h0ZM1443.8,1476.6c-3.1-1.5-6.4-2.3-9.8-2.4-3.7,0-7.4.7-10.7,2-1.4.4-2.7,1-4,1.7-5,2.4-9,5.7-12.8,9.7-3.7,3.7-6.7,8.4-9.4,13.8-2.4,5-3.4,10.8-3.4,16.8s1.3,9.4,4.7,12.8c3.4,3.7,7.7,5.4,13.8,5.4s7.4-.7,11.1-2c10.1-3.8,18.5-11.2,23.5-20.8,3.9-6.2,6-13.4,6.1-20.8,0-3.4-.7-6.7-2.4-9.4-1.5-2.9-3.8-5.2-6.7-6.7h0ZM1434.1,1502.8c-1.6,6.3-3.8,12.4-6.7,18.1-1.2,2.4-2.5,4.8-4,7.1-1,1.3-2,2.7-3,3.4-1.2,1-2.8,1.6-4.4,1.7-1.7,0-3.3-.8-4.4-2-1.3-1.3-1.7-3-1.7-5,0-8.1,1.7-17.1,5.7-27.2,2.7-7.4,5.4-12.8,7.7-16.1.7-1.3,1.7-2,2.4-3,1.6-1.4,3.6-2.1,5.7-2,1.5,0,2.9.8,3.7,2,1.3,1.3,1.7,3,1.7,5.4,0,6-.9,12-2.7,17.8h0ZM1383.4,1444.3c-2.6,0-5,1-6.7,3-2,1.7-2.7,4-2.7,6.7s.7,4.7,2.7,6.7c1.6,1.7,4,2.7,6.7,2.7s4.7-1,6.7-2.7c1.7-2,2.7-4,2.7-6.7s-.7-5-2.7-6.7c-1.7-2-4.2-3.1-6.7-3ZM1519.4,1520.6c-1.4,2.3-3,4-4.4,5.4-.7.3-1,.3-1.3.3s-.7,0-1-.3c-.4-.4-.6-.8-.7-1.3,0-.7.3-2.3,1-4.7l8.4-27.9c1-3.4,1.7-6.4,1.7-8.7,0-2.3-.8-4.6-2.4-6.4-1.7-1.7-3.7-2.7-6.1-2.7s-5,1-8.1,2.4c-2.7,1.7-6.1,4.7-10.1,9-2.7,2.7-6.7,8.4-12.1,16.5l8.1-27.9h-4l-21.8,4-.7,2.3c2,0,3.7,0,4.4.3.7.3,1.3.7,1.7,1.3.4.3.4,1,.4,1.7,0,1.7-.4,4.7-1.7,8.7l-12.1,42h16.5l5.4-19.5c5.7-11.4,11.4-19.8,17.5-25.5,2.4-2.3,4.4-3.3,6.1-3.3.5,0,1,.3,1.3.7.3.3.3.7.3,1,0,1,0,2.4-.7,4l-8.1,27.9c-1,3.7-1.7,6.4-1.7,8.1,0,2.1.8,4,2.4,5.4,1.3,1.3,3.7,2,6.4,2,7,0,13.4-5.4,19.8-16.1l-2.4-1.3c-.9,1-1.3,2-2,2.7h0ZM1387.4,1474.2h-4l-21.8,3.7-1,2.7c1-.3,1.7-.3,2.4-.3,1.3,0,2.7.3,3.4,1.3,1,.7,1.3,1.3,1.3,2.4,0,1.7-.4,3.7-1.3,6.7l-9.1,31.2q0,.3-.4.7c-.3,2-.7,4-.7,5.4s.3,2.7.7,4c.7.7,1,1.3,1.7,2,1.7,1.7,4,2.4,6.7,2.4,7.4,0,14.5-5.7,20.8-17.1l-2-1.3c-2.7,4.4-5,7.1-7.1,8.7-.6.7-1.4,1-2.3,1-.3,0-.7-.3-1-.7-.7-.4-.7-.7-.7-1.3s.3-2.4,1-5l13.4-46.4ZM1311.5,1477.6c-2.3-2.3-5.7-3.4-10.4-3.4s-12.4,2-18.8,6.1c-6.4,4-11.6,9.7-15.1,16.5-3.9,6.2-6,13.4-6.1,20.8,0,3,1,6.4,2.4,9.4,1.3,3,3.7,5.4,6.7,6.7,3,1.7,6.4,2.7,10.1,2.7,6,0,11.4-1.7,17.1-4.7,4-2.4,8.1-6,11.8-11.1l-1.7-1.7c-2.5,2.8-5.6,5-9.1,6.4-3,1.3-6.1,2.4-8.7,2.4s-6.1-1.3-8.4-4c-2.3-2.3-3.3-5.7-3.3-10.1s1-11.1,3.3-17.1c2.4-5.7,5.4-10.8,9.8-14.8,3.4-2.7,6.7-4.4,10.4-4.4s2.3.3,3.4,1c.7.7,1,1,1,2s-1,2-2.7,3c-2,1.4-3.3,3.6-3.3,6.1,0,2,.7,3.4,2,4.7s3,2,4.7,2c2.4,0,4.6-1.2,6-3,2-2,2.7-4.4,2.7-7.4s-1-6.1-3.7-8.1h0ZM1246.1,1474.2c-4.7,0-9.7,1-14.8,3-2,1-4.4,2-6.4,3.3-7,4.2-12.9,10.1-17.1,17.1-2.2,3.9-3.9,8.1-5,12.4-.7,3-1,6-1,9.1,0,2.3.4,4.4,1,6.4.7,2,1.7,3.7,3,5.4,2.7,3.7,7.7,5.4,15.1,5.4s7.1-.7,10.4-1.7c2-.7,3.7-1.3,5.4-2,4.7-2.7,9.4-7.1,14.4-13.1l-2-1.7c-4,3.7-7.7,6.4-10.7,7.7-2.4,1-4.7,2-7.1,2-.7.3-1.3.3-2,.3-3,0-5.7-1-7.4-3-2-2.1-3.1-4.9-3-7.7,0-2,.3-4.4.7-7.1,4.7-.3,8.7-1,11.8-1.7.3,0,.7-.3,1-.3,4.7-1.3,9.1-3,12.7-5.7,3.7-2.4,7-5.7,9.4-9.7,2-3,2.7-6.1,2.7-9.1s-.7-5-2.7-6.7c-1.7-1.7-4.7-2.7-8.4-2.7h0ZM1240.3,1491.7c-1.1,3-2.8,5.8-5,8.1-1.3,1.3-2.7,2.3-4,3.4-.7.6-1.5,1.1-2.4,1.3-2,1-5,1.7-8.7,2.4,3-10.1,6.7-17.8,11.1-23.2.3-.4.7-.4.7-.7,2.7-3,5-4.4,7-4.4s2,.3,2.7,1c.7.7,1,1.7,1,3,0,2.7-1,5.7-2.4,9.1h0ZM1184.6,1526.6c-.6.6-1.5,1-2.4,1-.3,0-1,0-1.3-.7-.3-.4-.3-.7-.3-1.3,0-1,.7-3.7,1.7-8.1l20.5-69.5,1-3.7h-3.7l-21.8,4-.7,2.4c2.4,0,4,.3,5.4,1,1,.7,1.3,1.7,1.3,2.7s-.3,3-1.3,6.4l-17.5,59.8-.3.3c-1,3.4-1.3,6.1-1.3,7.7s.3,3,1.7,4.4c0,.3.4.7.7,1,1.7,1.7,4,2.4,7.1,2.4s6-1,8.7-3c4-2.7,8.1-7.4,12.1-14.1l-2.7-1c-2.3,4-4.7,7.1-6.7,8.4h0ZM1347.1,1483.7h8.4l1.3-4.7,1-2.7h-8.4l5-17.8h-3.3c-5.4,6.1-9.8,10.4-13.8,13.1-4.3,3.1-9.1,5.6-14.1,7.4l-1,4.7h8.7l-10.4,35.3c-1,3.7-1.7,7.1-1.7,9.4,0,2.2,1,4.3,2.7,5.7,1.3,1.7,3.7,2.4,6.7,2.4s7.1-1.3,10.7-3.7c3.4-2.4,6.7-6.1,9.8-11.4l-2.4-1.3c-2.7,3.7-5,6.4-7,7.7-.7.7-1.3,1-2,1s-1-.3-1.3-.7c-.4-.3-.7-.7-.7-1.3,0-1.3.3-3,1-5.3l10.7-37.6h0Z"/>
</svg>